<svg xmlns="http://www.w3.org/2000/svg" xmlns:xlink="http://www.w3.org/1999/xlink" zoomAndPan="magnify" preserveAspectRatio="xMidYMid meet" version="1.0" viewBox="11.51 30.93 352.23 314.4"><defs><clipPath id="8199f51897"><path d="M 43 204 L 311 204 L 311 345.332031 L 43 345.332031 Z M 43 204 " clip-rule="nonzero"/></clipPath></defs><path fill="#00b4ff" d="M 363.734375 188.34375 L 212.867188 188.34375 L 219.238281 200.640625 L 226.652344 208.675781 L 363.734375 208.675781 L 363.734375 188.34375 " fill-opacity="1" fill-rule="nonzero"/><path fill="#00b4ff" d="M 351.488281 75.777344 C 334.523438 47.289062 301.726562 29.710938 267.9375 31 C 233.410156 32.324219 204.746094 51.359375 187.621094 66.039062 L 183.617188 81.953125 L 187.625 108.257812 C 187.730469 108.121094 212.644531 82.542969 237.09375 71.546875 C 281.746094 51.460938 333.132812 71.789062 331.042969 127.996094 C 330.15625 151.746094 322.375 172.273438 322.375 172.273438 L 350.789062 172.273438 C 358.804688 156.097656 363.140625 140.015625 363.679688 124.332031 C 364.277344 106.980469 360.058594 90.191406 351.488281 75.777344 " fill-opacity="1" fill-rule="nonzero"/><g clip-path="url(#8199f51897)"><path fill="#00b4ff" d="M 43.78125 204.464844 L 60.363281 221.683594 C 88.898438 251.3125 113.019531 272.414062 132.40625 289.375 C 152.015625 306.523438 167.503906 320.074219 179.691406 335.304688 L 187.621094 345.21875 L 195.546875 335.304688 C 207.738281 320.074219 223.226562 306.523438 242.835938 289.375 C 261.132812 273.363281 283.914062 253.4375 310.523438 226.175781 L 281.816406 226.175781 C 261.976562 245.628906 244.882812 260.578125 229.46875 274.0625 C 212.980469 288.488281 199.300781 300.457031 187.621094 313.320312 C 175.941406 300.457031 162.261719 288.488281 145.773438 274.0625 C 130.691406 260.871094 112.691406 245.125 92.023438 224.792969 L 158.507812 224.792969 L 151.601562 212.003906 L 143 204.464844 L 43.78125 204.464844 " fill-opacity="1" fill-rule="nonzero"/></g><path fill="#00b4ff" d="M 172.222656 114.015625 L 167.632812 159.234375 L 169.316406 185.222656 L 192.460938 284.699219 L 197.476562 254.75 L 197.476562 227.117188 L 172.222656 114.015625 " fill-opacity="1" fill-rule="nonzero"/><path fill="#00b4ff" d="M 107.304688 31 C 72.503906 29.671875 39.238281 48.042969 22.589844 77.804688 C 14.015625 93.136719 10.300781 110.929688 11.855469 129.261719 C 13.054688 143.410156 17.277344 157.808594 24.445312 172.273438 L 52.867188 172.273438 C 52.867188 172.273438 45.089844 151.746094 44.203125 127.996094 C 42.113281 71.789062 93.496094 51.460938 138.15625 71.546875 C 162.597656 82.542969 187.515625 108.121094 187.625 108.257812 L 187.621094 66.039062 C 170.496094 51.359375 141.828125 32.324219 107.304688 31 " fill-opacity="1" fill-rule="nonzero"/><path fill="#00b4ff" d="M 143 204.464844 L 158.507812 224.792969 L 169.316406 185.222656 L 172.222656 114.015625 L 143 204.464844 " fill-opacity="1" fill-rule="nonzero"/><path fill="#00b4ff" d="M 197.476562 227.117188 L 192.460938 284.699219 L 226.652344 208.675781 L 212.867188 188.34375 L 197.476562 227.117188 " fill-opacity="1" fill-rule="nonzero"/></svg>