<svg xmlns="http://www.w3.org/2000/svg" xmlns:xlink="http://www.w3.org/1999/xlink" zoomAndPan="magnify" preserveAspectRatio="xMidYMid meet" version="1.0" viewBox="88.8 151.15 196.92 52.59"><defs><g/></defs><g fill="#ffffff" fill-opacity="1"><g transform="translate(86.753444, 177.699012)"><g><path d="M 3.71875 -26.515625 L 9.578125 -26.515625 C 11.347656 -26.515625 12.976562 -26.035156 14.46875 -25.078125 C 15.25 -24.566406 15.878906 -23.832031 16.359375 -22.875 C 16.835938 -21.914062 17.078125 -20.78125 17.078125 -19.46875 C 17.078125 -17.46875 16.492188 -15.789062 15.328125 -14.4375 C 14.171875 -13.09375 12.15625 -12.421875 9.28125 -12.421875 L 6.78125 -12.421875 C 6.550781 -12.421875 6.363281 -12.492188 6.21875 -12.640625 C 6.082031 -12.796875 6.015625 -12.976562 6.015625 -13.1875 L 6.015625 -13.515625 C 6.015625 -14.023438 6.269531 -14.28125 6.78125 -14.28125 L 8.828125 -14.28125 C 11.578125 -14.28125 13.359375 -14.859375 14.171875 -16.015625 C 14.847656 -16.972656 15.1875 -18.132812 15.1875 -19.5 C 15.1875 -21.289062 14.609375 -22.59375 13.453125 -23.40625 C 12.304688 -24.21875 10.953125 -24.625 9.390625 -24.625 L 3.9375 -24.625 L 3.9375 -0.75 C 3.9375 -0.550781 3.859375 -0.375 3.703125 -0.21875 C 3.554688 -0.0703125 3.382812 0 3.1875 0 L 2.796875 0 C 2.597656 0 2.421875 -0.0703125 2.265625 -0.21875 C 2.117188 -0.375 2.046875 -0.550781 2.046875 -0.75 L 2.046875 -24.84375 C 2.046875 -25.5 2.160156 -25.941406 2.390625 -26.171875 C 2.617188 -26.398438 3.0625 -26.515625 3.71875 -26.515625 Z M 3.71875 -26.515625 "/></g></g></g><g fill="#ffffff" fill-opacity="1"><g transform="translate(105.994011, 177.699012)"><g><path d="M 18.1875 -26.515625 L 18.5625 -26.515625 C 18.757812 -26.515625 18.929688 -26.4375 19.078125 -26.28125 C 19.234375 -26.132812 19.3125 -25.957031 19.3125 -25.75 L 19.3125 -9.5 C 19.3125 -7.6875 19.007812 -6.113281 18.40625 -4.78125 C 17.800781 -3.457031 17.019531 -2.46875 16.0625 -1.8125 C 14.289062 -0.582031 12.484375 0.03125 10.640625 0.03125 L 10.1875 0.03125 C 8.34375 0.03125 6.515625 -0.582031 4.703125 -1.8125 C 3.734375 -2.46875 2.953125 -3.457031 2.359375 -4.78125 C 1.773438 -6.113281 1.484375 -7.6875 1.484375 -9.5 L 1.484375 -25.75 C 1.484375 -25.957031 1.550781 -26.132812 1.6875 -26.28125 C 1.820312 -26.4375 2.003906 -26.515625 2.234375 -26.515625 L 2.609375 -26.515625 C 2.835938 -26.515625 3.019531 -26.4375 3.15625 -26.28125 C 3.300781 -26.132812 3.375 -25.957031 3.375 -25.75 L 3.375 -9.5 C 3.375 -8.007812 3.613281 -6.726562 4.09375 -5.65625 C 4.570312 -4.582031 5.203125 -3.78125 5.984375 -3.25 C 7.347656 -2.34375 8.773438 -1.863281 10.265625 -1.8125 L 10.609375 -1.8125 C 12.046875 -1.863281 13.457031 -2.359375 14.84375 -3.296875 C 15.601562 -3.796875 16.222656 -4.582031 16.703125 -5.65625 C 17.179688 -6.726562 17.421875 -8.007812 17.421875 -9.5 L 17.421875 -25.75 C 17.421875 -25.957031 17.488281 -26.132812 17.625 -26.28125 C 17.769531 -26.4375 17.957031 -26.515625 18.1875 -26.515625 Z M 18.1875 -26.515625 "/></g></g></g><g fill="#ffffff" fill-opacity="1"><g transform="translate(127.658574, 177.699012)"><g><path d="M 3.671875 -26.515625 L 8.859375 -26.515625 C 14.972656 -26.515625 18.03125 -24.113281 18.03125 -19.3125 C 18.03125 -17.445312 17.4375 -15.785156 16.25 -14.328125 C 15.0625 -12.878906 13.191406 -12.15625 10.640625 -12.15625 L 10.21875 -12.15625 L 18.40625 -1.40625 C 18.707031 -0.945312 18.859375 -0.664062 18.859375 -0.5625 C 18.859375 -0.1875 18.679688 0 18.328125 0 L 17.578125 0 C 17.242188 0 17.003906 -0.0976562 16.859375 -0.296875 L 8.109375 -11.8125 C 7.828125 -12.21875 7.6875 -12.546875 7.6875 -12.796875 C 7.6875 -13.609375 8.128906 -14.015625 9.015625 -14.015625 L 10.6875 -14.015625 C 11.738281 -14.015625 12.644531 -14.191406 13.40625 -14.546875 C 14.164062 -14.898438 14.722656 -15.351562 15.078125 -15.90625 C 15.785156 -16.988281 16.140625 -18.113281 16.140625 -19.28125 C 16.140625 -22.84375 13.703125 -24.625 8.828125 -24.625 L 3.984375 -24.625 L 3.984375 -0.75 C 3.984375 -0.550781 3.910156 -0.375 3.765625 -0.21875 C 3.628906 -0.0703125 3.445312 0 3.21875 0 L 2.84375 0 C 2.613281 0 2.425781 -0.0703125 2.28125 -0.21875 C 2.144531 -0.375 2.078125 -0.550781 2.078125 -0.75 L 2.078125 -24.734375 C 2.078125 -25.410156 2.1875 -25.875 2.40625 -26.125 C 2.625 -26.382812 3.046875 -26.515625 3.671875 -26.515625 Z M 3.671875 -26.515625 "/></g></g></g><g fill="#ffffff" fill-opacity="1"><g transform="translate(146.558268, 177.699012)"><g><path d="M 3.859375 -26.515625 L 17.078125 -26.515625 C 17.285156 -26.515625 17.460938 -26.4375 17.609375 -26.28125 C 17.765625 -26.132812 17.84375 -25.957031 17.84375 -25.75 L 17.84375 -25.421875 C 17.84375 -25.191406 17.765625 -25.003906 17.609375 -24.859375 C 17.460938 -24.722656 17.285156 -24.65625 17.078125 -24.65625 L 4.234375 -24.65625 L 4.234375 -1.859375 L 17.078125 -1.859375 C 17.285156 -1.859375 17.460938 -1.785156 17.609375 -1.640625 C 17.765625 -1.503906 17.84375 -1.320312 17.84375 -1.09375 L 17.84375 -0.75 C 17.84375 -0.550781 17.765625 -0.375 17.609375 -0.21875 C 17.460938 -0.0703125 17.285156 0 17.078125 0 L 3.828125 0 C 3.222656 0 2.820312 -0.128906 2.625 -0.390625 C 2.4375 -0.660156 2.34375 -1.035156 2.34375 -1.515625 L 2.34375 -25.03125 C 2.34375 -25.539062 2.457031 -25.914062 2.6875 -26.15625 C 2.914062 -26.394531 3.304688 -26.515625 3.859375 -26.515625 Z M 6.515625 -14.703125 L 14.625 -14.703125 C 14.84375 -14.703125 15.019531 -14.625 15.15625 -14.46875 C 15.300781 -14.3125 15.375 -14.132812 15.375 -13.9375 L 15.375 -13.59375 C 15.375 -13.09375 15.125 -12.84375 14.625 -12.84375 L 6.515625 -12.84375 C 6.003906 -12.84375 5.75 -13.09375 5.75 -13.59375 L 5.75 -13.9375 C 5.75 -14.132812 5.816406 -14.3125 5.953125 -14.46875 C 6.097656 -14.625 6.285156 -14.703125 6.515625 -14.703125 Z M 6.515625 -14.703125 "/></g></g></g><g fill="#ffffff" fill-opacity="1"><g transform="translate(165.874583, 177.699012)"><g><path d="M 17.078125 -26.515625 L 17.421875 -26.515625 C 17.648438 -26.515625 17.832031 -26.4375 17.96875 -26.28125 C 18.113281 -26.132812 18.1875 -25.957031 18.1875 -25.75 L 18.1875 -0.75 C 18.1875 -0.550781 18.113281 -0.375 17.96875 -0.21875 C 17.832031 -0.0703125 17.648438 0 17.421875 0 L 17.078125 0 C 16.878906 0 16.703125 -0.0703125 16.546875 -0.21875 C 16.398438 -0.375 16.328125 -0.550781 16.328125 -0.75 L 16.328125 -25.75 C 16.328125 -25.957031 16.398438 -26.132812 16.546875 -26.28125 C 16.703125 -26.4375 16.878906 -26.515625 17.078125 -26.515625 Z M 2.5 -26.515625 L 2.84375 -26.515625 C 3.070312 -26.515625 3.253906 -26.4375 3.390625 -26.28125 C 3.523438 -26.132812 3.59375 -25.957031 3.59375 -25.75 L 3.59375 -0.75 C 3.59375 -0.550781 3.523438 -0.375 3.390625 -0.21875 C 3.253906 -0.0703125 3.070312 0 2.84375 0 L 2.5 0 C 2.300781 0 2.125 -0.0703125 1.96875 -0.21875 C 1.820312 -0.375 1.75 -0.550781 1.75 -0.75 L 1.75 -25.75 C 1.75 -25.957031 1.820312 -26.132812 1.96875 -26.28125 C 2.125 -26.4375 2.300781 -26.515625 2.5 -26.515625 Z M 5.109375 -14.890625 L 14.890625 -14.890625 C 15.085938 -14.890625 15.257812 -14.8125 15.40625 -14.65625 C 15.5625 -14.507812 15.640625 -14.332031 15.640625 -14.125 L 15.640625 -13.75 C 15.640625 -13.550781 15.5625 -13.375 15.40625 -13.21875 C 15.257812 -13.0625 15.085938 -12.984375 14.890625 -12.984375 L 5.109375 -12.984375 C 4.910156 -12.984375 4.734375 -13.0625 4.578125 -13.21875 C 4.429688 -13.375 4.359375 -13.550781 4.359375 -13.75 L 4.359375 -14.125 C 4.359375 -14.332031 4.429688 -14.507812 4.578125 -14.65625 C 4.734375 -14.8125 4.910156 -14.890625 5.109375 -14.890625 Z M 5.109375 -14.890625 "/></g></g></g><g fill="#ffffff" fill-opacity="1"><g transform="translate(186.971021, 177.699012)"><g><path d="M 3.859375 -26.515625 L 17.078125 -26.515625 C 17.285156 -26.515625 17.460938 -26.4375 17.609375 -26.28125 C 17.765625 -26.132812 17.84375 -25.957031 17.84375 -25.75 L 17.84375 -25.421875 C 17.84375 -25.191406 17.765625 -25.003906 17.609375 -24.859375 C 17.460938 -24.722656 17.285156 -24.65625 17.078125 -24.65625 L 4.234375 -24.65625 L 4.234375 -1.859375 L 17.078125 -1.859375 C 17.285156 -1.859375 17.460938 -1.785156 17.609375 -1.640625 C 17.765625 -1.503906 17.84375 -1.320312 17.84375 -1.09375 L 17.84375 -0.75 C 17.84375 -0.550781 17.765625 -0.375 17.609375 -0.21875 C 17.460938 -0.0703125 17.285156 0 17.078125 0 L 3.828125 0 C 3.222656 0 2.820312 -0.128906 2.625 -0.390625 C 2.4375 -0.660156 2.34375 -1.035156 2.34375 -1.515625 L 2.34375 -25.03125 C 2.34375 -25.539062 2.457031 -25.914062 2.6875 -26.15625 C 2.914062 -26.394531 3.304688 -26.515625 3.859375 -26.515625 Z M 6.515625 -14.703125 L 14.625 -14.703125 C 14.84375 -14.703125 15.019531 -14.625 15.15625 -14.46875 C 15.300781 -14.3125 15.375 -14.132812 15.375 -13.9375 L 15.375 -13.59375 C 15.375 -13.09375 15.125 -12.84375 14.625 -12.84375 L 6.515625 -12.84375 C 6.003906 -12.84375 5.75 -13.09375 5.75 -13.59375 L 5.75 -13.9375 C 5.75 -14.132812 5.816406 -14.3125 5.953125 -14.46875 C 6.097656 -14.625 6.285156 -14.703125 6.515625 -14.703125 Z M 6.515625 -14.703125 "/></g></g></g><g fill="#ffffff" fill-opacity="1"><g transform="translate(206.287342, 177.699012)"><g><path d="M 9.3125 -25.53125 C 9.539062 -26.207031 10.023438 -26.546875 10.765625 -26.546875 C 11.515625 -26.546875 12.015625 -26.191406 12.265625 -25.484375 L 20.984375 -1.015625 C 21.003906 -0.941406 21.015625 -0.851562 21.015625 -0.75 C 21.015625 -0.25 20.765625 0 20.265625 0 L 19.8125 0 C 19.476562 0 19.238281 -0.164062 19.09375 -0.5 L 10.828125 -24.015625 L 2.53125 -0.5 C 2.382812 -0.164062 2.144531 0 1.8125 0 L 1.359375 0 C 0.859375 0 0.609375 -0.25 0.609375 -0.75 C 0.609375 -0.851562 0.617188 -0.941406 0.640625 -1.015625 Z M 7.53125 -11.671875 L 14.09375 -11.671875 C 14.289062 -11.671875 14.460938 -11.597656 14.609375 -11.453125 C 14.765625 -11.316406 14.84375 -11.132812 14.84375 -10.90625 L 14.84375 -10.5625 C 14.84375 -10.332031 14.765625 -10.148438 14.609375 -10.015625 C 14.460938 -9.878906 14.289062 -9.8125 14.09375 -9.8125 L 7.53125 -9.8125 C 7.050781 -9.8125 6.8125 -10.0625 6.8125 -10.5625 L 6.8125 -10.90625 C 6.8125 -11.414062 7.050781 -11.671875 7.53125 -11.671875 Z M 7.53125 -11.671875 "/></g></g></g><g fill="#ffffff" fill-opacity="1"><g transform="translate(228.936663, 177.699012)"><g><path d="M 2.6875 -26.515625 L 3.0625 -26.515625 C 3.269531 -26.515625 3.445312 -26.4375 3.59375 -26.28125 C 3.75 -26.132812 3.828125 -25.957031 3.828125 -25.75 L 3.828125 -1.859375 L 16.46875 -1.859375 C 16.945312 -1.859375 17.1875 -1.601562 17.1875 -1.09375 L 17.1875 -0.75 C 17.1875 -0.550781 17.117188 -0.375 16.984375 -0.21875 C 16.847656 -0.0703125 16.675781 0 16.46875 0 L 3.484375 0 C 2.453125 0 1.9375 -0.539062 1.9375 -1.625 L 1.9375 -25.75 C 1.9375 -25.957031 2.007812 -26.132812 2.15625 -26.28125 C 2.3125 -26.4375 2.488281 -26.515625 2.6875 -26.515625 Z M 2.6875 -26.515625 "/></g></g></g><g fill="#ffffff" fill-opacity="1"><g transform="translate(248.215104, 177.699012)"><g><path d="M 9.125 -23.640625 L 9.5 -23.640625 C 10.007812 -23.640625 10.265625 -23.398438 10.265625 -22.921875 L 10.265625 -0.75 C 10.265625 -0.550781 10.191406 -0.375 10.046875 -0.21875 C 9.910156 -0.0703125 9.726562 0 9.5 0 L 9.125 0 C 8.894531 0 8.710938 -0.0703125 8.578125 -0.21875 C 8.441406 -0.375 8.375 -0.550781 8.375 -0.75 L 8.375 -22.921875 C 8.375 -23.398438 8.625 -23.640625 9.125 -23.640625 Z M 0.953125 -26.515625 L 17.765625 -26.515625 C 17.992188 -26.515625 18.175781 -26.4375 18.3125 -26.28125 C 18.445312 -26.132812 18.515625 -25.957031 18.515625 -25.75 L 18.515625 -25.34375 C 18.515625 -24.882812 18.265625 -24.65625 17.765625 -24.65625 L 0.953125 -24.65625 C 0.441406 -24.65625 0.1875 -24.882812 0.1875 -25.34375 L 0.1875 -25.75 C 0.1875 -25.957031 0.257812 -26.132812 0.40625 -26.28125 C 0.5625 -26.4375 0.742188 -26.515625 0.953125 -26.515625 Z M 0.953125 -26.515625 "/></g></g></g><g fill="#ffffff" fill-opacity="1"><g transform="translate(267.531425, 177.699012)"><g><path d="M 17.078125 -26.515625 L 17.421875 -26.515625 C 17.648438 -26.515625 17.832031 -26.4375 17.96875 -26.28125 C 18.113281 -26.132812 18.1875 -25.957031 18.1875 -25.75 L 18.1875 -0.75 C 18.1875 -0.550781 18.113281 -0.375 17.96875 -0.21875 C 17.832031 -0.0703125 17.648438 0 17.421875 0 L 17.078125 0 C 16.878906 0 16.703125 -0.0703125 16.546875 -0.21875 C 16.398438 -0.375 16.328125 -0.550781 16.328125 -0.75 L 16.328125 -25.75 C 16.328125 -25.957031 16.398438 -26.132812 16.546875 -26.28125 C 16.703125 -26.4375 16.878906 -26.515625 17.078125 -26.515625 Z M 2.5 -26.515625 L 2.84375 -26.515625 C 3.070312 -26.515625 3.253906 -26.4375 3.390625 -26.28125 C 3.523438 -26.132812 3.59375 -25.957031 3.59375 -25.75 L 3.59375 -0.75 C 3.59375 -0.550781 3.523438 -0.375 3.390625 -0.21875 C 3.253906 -0.0703125 3.070312 0 2.84375 0 L 2.5 0 C 2.300781 0 2.125 -0.0703125 1.96875 -0.21875 C 1.820312 -0.375 1.75 -0.550781 1.75 -0.75 L 1.75 -25.75 C 1.75 -25.957031 1.820312 -26.132812 1.96875 -26.28125 C 2.125 -26.4375 2.300781 -26.515625 2.5 -26.515625 Z M 5.109375 -14.890625 L 14.890625 -14.890625 C 15.085938 -14.890625 15.257812 -14.8125 15.40625 -14.65625 C 15.5625 -14.507812 15.640625 -14.332031 15.640625 -14.125 L 15.640625 -13.75 C 15.640625 -13.550781 15.5625 -13.375 15.40625 -13.21875 C 15.257812 -13.0625 15.085938 -12.984375 14.890625 -12.984375 L 5.109375 -12.984375 C 4.910156 -12.984375 4.734375 -13.0625 4.578125 -13.21875 C 4.429688 -13.375 4.359375 -13.550781 4.359375 -13.75 L 4.359375 -14.125 C 4.359375 -14.332031 4.429688 -14.507812 4.578125 -14.65625 C 4.734375 -14.8125 4.910156 -14.890625 5.109375 -14.890625 Z M 5.109375 -14.890625 "/></g></g></g><g fill="#00b4ff" fill-opacity="1"><g transform="translate(95.924764, 203.711413)"><g><path d="M 9.609375 -12.5625 C 9.804688 -12.5625 9.972656 -12.5 10.109375 -12.375 C 10.253906 -12.25 10.328125 -12.054688 10.328125 -11.796875 L 10.328125 -0.359375 C 10.328125 -0.265625 10.296875 -0.179688 10.234375 -0.109375 C 10.171875 -0.0351562 10.082031 0 9.96875 0 L 9.8125 0 C 9.707031 0 9.617188 -0.0351562 9.546875 -0.109375 C 9.484375 -0.179688 9.453125 -0.265625 9.453125 -0.359375 L 9.453125 -11 L 6.34375 -3.3125 C 6.21875 -3 6.003906 -2.820312 5.703125 -2.78125 C 5.359375 -2.78125 5.113281 -2.945312 4.96875 -3.28125 L 1.6875 -11.0625 L 1.6875 -0.359375 C 1.6875 -0.265625 1.648438 -0.179688 1.578125 -0.109375 C 1.503906 -0.0351562 1.421875 0 1.328125 0 L 1.140625 0 C 1.046875 0 0.960938 -0.0351562 0.890625 -0.109375 C 0.828125 -0.179688 0.796875 -0.265625 0.796875 -0.359375 L 0.796875 -11.796875 C 0.796875 -12.304688 1.03125 -12.5625 1.5 -12.5625 C 1.820312 -12.5625 2.0625 -12.382812 2.21875 -12.03125 L 5.65625 -3.9375 L 8.90625 -12.03125 C 9.070312 -12.382812 9.304688 -12.5625 9.609375 -12.5625 Z M 9.609375 -12.5625 "/></g></g></g><g fill="#00b4ff" fill-opacity="1"><g transform="translate(109.973363, 203.711413)"><g><path d="M 1.828125 -12.515625 L 8.0625 -12.515625 C 8.15625 -12.515625 8.238281 -12.476562 8.3125 -12.40625 C 8.382812 -12.332031 8.421875 -12.25 8.421875 -12.15625 L 8.421875 -12 C 8.421875 -11.882812 8.382812 -11.796875 8.3125 -11.734375 C 8.238281 -11.671875 8.15625 -11.640625 8.0625 -11.640625 L 2 -11.640625 L 2 -0.875 L 8.0625 -0.875 C 8.15625 -0.875 8.238281 -0.835938 8.3125 -0.765625 C 8.382812 -0.703125 8.421875 -0.617188 8.421875 -0.515625 L 8.421875 -0.359375 C 8.421875 -0.265625 8.382812 -0.179688 8.3125 -0.109375 C 8.238281 -0.0351562 8.15625 0 8.0625 0 L 1.8125 0 C 1.519531 0 1.328125 -0.0625 1.234375 -0.1875 C 1.148438 -0.3125 1.109375 -0.488281 1.109375 -0.71875 L 1.109375 -11.8125 C 1.109375 -12.050781 1.160156 -12.226562 1.265625 -12.34375 C 1.378906 -12.457031 1.566406 -12.515625 1.828125 -12.515625 Z M 3.078125 -6.9375 L 6.90625 -6.9375 C 7.007812 -6.9375 7.09375 -6.898438 7.15625 -6.828125 C 7.21875 -6.753906 7.25 -6.671875 7.25 -6.578125 L 7.25 -6.421875 C 7.25 -6.179688 7.132812 -6.0625 6.90625 -6.0625 L 3.078125 -6.0625 C 2.835938 -6.0625 2.71875 -6.179688 2.71875 -6.421875 L 2.71875 -6.578125 C 2.71875 -6.671875 2.75 -6.753906 2.8125 -6.828125 C 2.875 -6.898438 2.960938 -6.9375 3.078125 -6.9375 Z M 3.078125 -6.9375 "/></g></g></g><g fill="#00b4ff" fill-opacity="1"><g transform="translate(121.341309, 203.711413)"><g><path d="M 1.453125 -12.515625 L 4.34375 -12.515625 C 6.101562 -12.515625 7.273438 -12.082031 7.859375 -11.21875 C 8.160156 -10.789062 8.363281 -10.316406 8.46875 -9.796875 C 8.582031 -9.285156 8.640625 -8.632812 8.640625 -7.84375 L 8.640625 -4.421875 C 8.640625 -2.890625 8.316406 -1.769531 7.671875 -1.0625 C 7.035156 -0.351562 5.960938 0 4.453125 0 L 1.46875 0 C 0.988281 0 0.75 -0.242188 0.75 -0.734375 L 0.75 -11.796875 C 0.75 -12.054688 0.796875 -12.238281 0.890625 -12.34375 C 0.992188 -12.457031 1.179688 -12.515625 1.453125 -12.515625 Z M 4.34375 -11.640625 L 1.640625 -11.640625 L 1.640625 -0.875 L 4.453125 -0.875 C 5.585938 -0.875 6.421875 -1.140625 6.953125 -1.671875 C 7.484375 -2.210938 7.75 -3.09375 7.75 -4.3125 L 7.75 -7.90625 C 7.75 -9.207031 7.507812 -10.15625 7.03125 -10.75 C 6.5625 -11.34375 5.664062 -11.640625 4.34375 -11.640625 Z M 4.34375 -11.640625 "/></g></g></g><g fill="#00b4ff" fill-opacity="1"><g transform="translate(134.06745, 203.711413)"><g><path d="M 1.6875 -12.515625 L 1.84375 -12.515625 C 1.9375 -12.515625 2.019531 -12.476562 2.09375 -12.40625 C 2.164062 -12.332031 2.203125 -12.25 2.203125 -12.15625 L 2.203125 -0.359375 C 2.203125 -0.265625 2.164062 -0.179688 2.09375 -0.109375 C 2.019531 -0.0351562 1.9375 0 1.84375 0 L 1.6875 0 C 1.570312 0 1.484375 -0.0351562 1.421875 -0.109375 C 1.359375 -0.179688 1.328125 -0.265625 1.328125 -0.359375 L 1.328125 -12.15625 C 1.328125 -12.25 1.359375 -12.332031 1.421875 -12.40625 C 1.484375 -12.476562 1.570312 -12.515625 1.6875 -12.515625 Z M 1.6875 -12.515625 "/></g></g></g><g fill="#00b4ff" fill-opacity="1"><g transform="translate(140.074093, 203.711413)"><g><path d="M 2.953125 -12.15625 C 3.378906 -12.351562 3.753906 -12.476562 4.078125 -12.53125 C 4.410156 -12.59375 4.734375 -12.625 5.046875 -12.625 C 5.359375 -12.625 5.675781 -12.59375 6 -12.53125 C 6.320312 -12.476562 6.675781 -12.363281 7.0625 -12.1875 C 7.457031 -12.019531 7.804688 -11.800781 8.109375 -11.53125 C 8.421875 -11.269531 8.695312 -10.898438 8.9375 -10.421875 C 9.175781 -9.953125 9.328125 -9.410156 9.390625 -8.796875 C 9.390625 -8.535156 9.269531 -8.40625 9.03125 -8.40625 L 8.859375 -8.40625 C 8.648438 -8.40625 8.535156 -8.507812 8.515625 -8.71875 C 8.453125 -9.21875 8.320312 -9.660156 8.125 -10.046875 C 7.9375 -10.429688 7.71875 -10.722656 7.46875 -10.921875 C 7.21875 -11.117188 6.929688 -11.285156 6.609375 -11.421875 C 6.140625 -11.617188 5.695312 -11.71875 5.28125 -11.71875 C 4.875 -11.71875 4.535156 -11.691406 4.265625 -11.640625 C 3.992188 -11.597656 3.691406 -11.5 3.359375 -11.34375 C 3.023438 -11.195312 2.734375 -10.992188 2.484375 -10.734375 C 2.234375 -10.472656 2.019531 -10.109375 1.84375 -9.640625 C 1.675781 -9.179688 1.59375 -8.648438 1.59375 -8.046875 L 1.59375 -4.546875 C 1.59375 -3.929688 1.6875 -3.390625 1.875 -2.921875 C 2.0625 -2.460938 2.289062 -2.101562 2.5625 -1.84375 C 2.832031 -1.59375 3.144531 -1.390625 3.5 -1.234375 C 4.070312 -0.984375 4.609375 -0.859375 5.109375 -0.859375 C 5.609375 -0.859375 6.035156 -0.898438 6.390625 -0.984375 C 6.742188 -1.078125 7.09375 -1.238281 7.4375 -1.46875 C 8.175781 -1.925781 8.546875 -2.789062 8.546875 -4.0625 C 8.546875 -4.257812 8.578125 -4.390625 8.640625 -4.453125 C 8.703125 -4.515625 8.789062 -4.546875 8.90625 -4.546875 L 9.046875 -4.546875 C 9.285156 -4.546875 9.40625 -4.425781 9.40625 -4.1875 C 9.40625 -3.457031 9.285156 -2.816406 9.046875 -2.265625 C 8.816406 -1.722656 8.546875 -1.3125 8.234375 -1.03125 C 7.929688 -0.75 7.570312 -0.523438 7.15625 -0.359375 C 6.507812 -0.109375 5.941406 0.015625 5.453125 0.015625 C 4.972656 0.015625 4.554688 -0.0078125 4.203125 -0.0625 C 3.859375 -0.125 3.46875 -0.253906 3.03125 -0.453125 C 2.59375 -0.660156 2.207031 -0.921875 1.875 -1.234375 C 1.550781 -1.546875 1.273438 -1.984375 1.046875 -2.546875 C 0.828125 -3.109375 0.71875 -3.753906 0.71875 -4.484375 L 0.71875 -8.109375 C 0.71875 -8.859375 0.828125 -9.519531 1.046875 -10.09375 C 1.265625 -10.664062 1.53125 -11.101562 1.84375 -11.40625 C 2.164062 -11.71875 2.535156 -11.96875 2.953125 -12.15625 Z M 2.953125 -12.15625 "/></g></g></g><g fill="#00b4ff" fill-opacity="1"><g transform="translate(152.585786, 203.711413)"><g><path d="M 4.390625 -12.046875 C 4.503906 -12.367188 4.734375 -12.53125 5.078125 -12.53125 C 5.429688 -12.53125 5.671875 -12.363281 5.796875 -12.03125 L 9.90625 -0.484375 C 9.914062 -0.441406 9.921875 -0.398438 9.921875 -0.359375 C 9.921875 -0.117188 9.800781 0 9.5625 0 L 9.34375 0 C 9.1875 0 9.078125 -0.078125 9.015625 -0.234375 L 5.109375 -11.328125 L 1.203125 -0.234375 C 1.128906 -0.078125 1.015625 0 0.859375 0 L 0.640625 0 C 0.398438 0 0.28125 -0.117188 0.28125 -0.359375 C 0.28125 -0.398438 0.285156 -0.441406 0.296875 -0.484375 Z M 3.5625 -5.5 L 6.65625 -5.5 C 6.75 -5.5 6.828125 -5.46875 6.890625 -5.40625 C 6.960938 -5.34375 7 -5.253906 7 -5.140625 L 7 -4.984375 C 7 -4.878906 6.960938 -4.789062 6.890625 -4.71875 C 6.828125 -4.65625 6.75 -4.625 6.65625 -4.625 L 3.5625 -4.625 C 3.332031 -4.625 3.21875 -4.742188 3.21875 -4.984375 L 3.21875 -5.140625 C 3.21875 -5.378906 3.332031 -5.5 3.5625 -5.5 Z M 3.5625 -5.5 "/></g></g></g><g fill="#00b4ff" fill-opacity="1"><g transform="translate(165.526381, 203.711413)"><g><path d="M 1.265625 -12.515625 L 1.453125 -12.515625 C 1.546875 -12.515625 1.628906 -12.476562 1.703125 -12.40625 C 1.773438 -12.332031 1.8125 -12.25 1.8125 -12.15625 L 1.8125 -0.875 L 7.78125 -0.875 C 8 -0.875 8.109375 -0.753906 8.109375 -0.515625 L 8.109375 -0.359375 C 8.109375 -0.265625 8.078125 -0.179688 8.015625 -0.109375 C 7.953125 -0.0351562 7.875 0 7.78125 0 L 1.640625 0 C 1.148438 0 0.90625 -0.253906 0.90625 -0.765625 L 0.90625 -12.15625 C 0.90625 -12.25 0.941406 -12.332031 1.015625 -12.40625 C 1.085938 -12.476562 1.171875 -12.515625 1.265625 -12.515625 Z M 1.265625 -12.515625 "/></g></g></g><g fill="#00b4ff" fill-opacity="1"><g transform="translate(176.876453, 203.711413)"><g/></g></g><g fill="#00b4ff" fill-opacity="1"><g transform="translate(188.244401, 203.711413)"><g><path d="M 1.515625 -9.671875 C 1.515625 -10.441406 1.832031 -11.113281 2.46875 -11.6875 C 3.101562 -12.257812 3.960938 -12.546875 5.046875 -12.546875 C 6.140625 -12.546875 7.054688 -12.253906 7.796875 -11.671875 C 8.546875 -11.097656 8.941406 -10.238281 8.984375 -9.09375 C 8.984375 -9 8.945312 -8.910156 8.875 -8.828125 C 8.8125 -8.753906 8.734375 -8.71875 8.640625 -8.71875 L 8.453125 -8.71875 C 8.367188 -8.71875 8.289062 -8.75 8.21875 -8.8125 C 8.144531 -8.882812 8.101562 -8.96875 8.09375 -9.0625 C 8.0625 -9.96875 7.757812 -10.625 7.1875 -11.03125 C 6.613281 -11.445312 5.925781 -11.65625 5.125 -11.65625 C 4.269531 -11.65625 3.601562 -11.457031 3.125 -11.0625 C 2.644531 -10.664062 2.40625 -10.175781 2.40625 -9.59375 C 2.40625 -9.019531 2.570312 -8.5625 2.90625 -8.21875 C 3.375 -7.757812 4.238281 -7.285156 5.5 -6.796875 C 7 -6.203125 8.003906 -5.601562 8.515625 -5 C 8.890625 -4.550781 9.078125 -3.898438 9.078125 -3.046875 C 9.078125 -2.203125 8.734375 -1.476562 8.046875 -0.875 C 7.367188 -0.28125 6.394531 0.015625 5.125 0.015625 C 4.1875 0.015625 3.300781 -0.238281 2.46875 -0.75 C 2.03125 -1.019531 1.671875 -1.398438 1.390625 -1.890625 C 1.109375 -2.390625 0.953125 -2.960938 0.921875 -3.609375 C 0.921875 -3.859375 1.039062 -3.984375 1.28125 -3.984375 L 1.453125 -3.984375 C 1.660156 -3.984375 1.78125 -3.867188 1.8125 -3.640625 C 1.832031 -3.117188 1.960938 -2.664062 2.203125 -2.28125 C 2.441406 -1.894531 2.738281 -1.601562 3.09375 -1.40625 C 3.78125 -1.039062 4.535156 -0.859375 5.359375 -0.859375 C 6.191406 -0.859375 6.875 -1.070312 7.40625 -1.5 C 7.9375 -1.9375 8.203125 -2.484375 8.203125 -3.140625 C 8.203125 -3.804688 7.988281 -4.320312 7.5625 -4.6875 C 7.21875 -4.96875 6.84375 -5.210938 6.4375 -5.421875 C 5.914062 -5.671875 5.09375 -6.019531 3.96875 -6.46875 C 3.113281 -6.851562 2.488281 -7.289062 2.09375 -7.78125 C 1.707031 -8.28125 1.515625 -8.910156 1.515625 -9.671875 Z M 1.515625 -9.671875 "/></g></g></g><g fill="#00b4ff" fill-opacity="1"><g transform="translate(200.630999, 203.711413)"><g><path d="M 3.125 -12.09375 C 3.550781 -12.28125 3.925781 -12.394531 4.25 -12.4375 C 4.570312 -12.488281 4.898438 -12.515625 5.234375 -12.515625 C 5.578125 -12.515625 5.914062 -12.488281 6.25 -12.4375 C 6.582031 -12.382812 6.960938 -12.257812 7.390625 -12.0625 C 7.816406 -11.875 8.179688 -11.628906 8.484375 -11.328125 C 8.796875 -11.023438 9.054688 -10.59375 9.265625 -10.03125 C 9.484375 -9.476562 9.59375 -8.835938 9.59375 -8.109375 L 9.59375 -4.484375 C 9.59375 -3.734375 9.484375 -3.070312 9.265625 -2.5 C 9.046875 -1.925781 8.773438 -1.484375 8.453125 -1.171875 C 8.140625 -0.867188 7.773438 -0.617188 7.359375 -0.421875 C 6.691406 -0.128906 5.988281 0.015625 5.25 0.015625 C 4.476562 0.015625 3.820312 -0.113281 3.28125 -0.375 C 2.738281 -0.632812 2.3125 -0.921875 2 -1.234375 C 1.6875 -1.546875 1.421875 -1.984375 1.203125 -2.546875 C 0.992188 -3.109375 0.890625 -3.753906 0.890625 -4.484375 L 0.890625 -8.109375 C 0.890625 -8.859375 1 -9.515625 1.21875 -10.078125 C 1.445312 -10.640625 1.710938 -11.066406 2.015625 -11.359375 C 2.328125 -11.660156 2.695312 -11.90625 3.125 -12.09375 Z M 6.921875 -11.28125 C 6.585938 -11.4375 6.289062 -11.535156 6.03125 -11.578125 C 5.78125 -11.617188 5.519531 -11.640625 5.25 -11.640625 C 4.976562 -11.640625 4.710938 -11.617188 4.453125 -11.578125 C 4.191406 -11.535156 3.890625 -11.4375 3.546875 -11.28125 C 3.203125 -11.132812 2.90625 -10.9375 2.65625 -10.6875 C 2.40625 -10.445312 2.191406 -10.097656 2.015625 -9.640625 C 1.847656 -9.179688 1.765625 -8.648438 1.765625 -8.046875 L 1.765625 -4.546875 C 1.765625 -3.929688 1.847656 -3.390625 2.015625 -2.921875 C 2.191406 -2.460938 2.410156 -2.101562 2.671875 -1.84375 C 2.929688 -1.59375 3.226562 -1.390625 3.5625 -1.234375 C 3.894531 -1.078125 4.191406 -0.972656 4.453125 -0.921875 C 4.722656 -0.878906 4.988281 -0.859375 5.25 -0.859375 C 5.519531 -0.859375 5.785156 -0.878906 6.046875 -0.921875 C 6.316406 -0.972656 6.617188 -1.078125 6.953125 -1.234375 C 7.285156 -1.390625 7.578125 -1.59375 7.828125 -1.84375 C 8.078125 -2.101562 8.285156 -2.460938 8.453125 -2.921875 C 8.628906 -3.390625 8.71875 -3.929688 8.71875 -4.546875 L 8.71875 -8.046875 C 8.71875 -8.648438 8.628906 -9.179688 8.453125 -9.640625 C 8.273438 -10.097656 8.0625 -10.445312 7.8125 -10.6875 C 7.5625 -10.9375 7.265625 -11.132812 6.921875 -11.28125 Z M 6.921875 -11.28125 "/></g></g></g><g fill="#00b4ff" fill-opacity="1"><g transform="translate(213.89327, 203.711413)"><g><path d="M 1.265625 -12.515625 L 1.453125 -12.515625 C 1.546875 -12.515625 1.628906 -12.476562 1.703125 -12.40625 C 1.773438 -12.332031 1.8125 -12.25 1.8125 -12.15625 L 1.8125 -0.875 L 7.78125 -0.875 C 8 -0.875 8.109375 -0.753906 8.109375 -0.515625 L 8.109375 -0.359375 C 8.109375 -0.265625 8.078125 -0.179688 8.015625 -0.109375 C 7.953125 -0.0351562 7.875 0 7.78125 0 L 1.640625 0 C 1.148438 0 0.90625 -0.253906 0.90625 -0.765625 L 0.90625 -12.15625 C 0.90625 -12.25 0.941406 -12.332031 1.015625 -12.40625 C 1.085938 -12.476562 1.171875 -12.515625 1.265625 -12.515625 Z M 1.265625 -12.515625 "/></g></g></g><g fill="#00b4ff" fill-opacity="1"><g transform="translate(225.243336, 203.711413)"><g><path d="M 8.578125 -12.515625 L 8.765625 -12.515625 C 8.859375 -12.515625 8.9375 -12.476562 9 -12.40625 C 9.070312 -12.332031 9.109375 -12.25 9.109375 -12.15625 L 9.109375 -4.484375 C 9.109375 -3.628906 8.96875 -2.890625 8.6875 -2.265625 C 8.40625 -1.640625 8.035156 -1.171875 7.578125 -0.859375 C 6.742188 -0.273438 5.890625 0.015625 5.015625 0.015625 L 4.8125 0.015625 C 3.9375 0.015625 3.070312 -0.273438 2.21875 -0.859375 C 1.757812 -1.171875 1.390625 -1.640625 1.109375 -2.265625 C 0.835938 -2.890625 0.703125 -3.628906 0.703125 -4.484375 L 0.703125 -12.15625 C 0.703125 -12.25 0.734375 -12.332031 0.796875 -12.40625 C 0.859375 -12.476562 0.941406 -12.515625 1.046875 -12.515625 L 1.234375 -12.515625 C 1.335938 -12.515625 1.421875 -12.476562 1.484375 -12.40625 C 1.554688 -12.332031 1.59375 -12.25 1.59375 -12.15625 L 1.59375 -4.484375 C 1.59375 -3.785156 1.703125 -3.179688 1.921875 -2.671875 C 2.148438 -2.160156 2.453125 -1.78125 2.828125 -1.53125 C 3.472656 -1.101562 4.144531 -0.878906 4.84375 -0.859375 L 5 -0.859375 C 5.6875 -0.878906 6.351562 -1.113281 7 -1.5625 C 7.363281 -1.789062 7.65625 -2.160156 7.875 -2.671875 C 8.101562 -3.179688 8.21875 -3.785156 8.21875 -4.484375 L 8.21875 -12.15625 C 8.21875 -12.25 8.25 -12.332031 8.3125 -12.40625 C 8.382812 -12.476562 8.472656 -12.515625 8.578125 -12.515625 Z M 8.578125 -12.515625 "/></g></g></g><g fill="#00b4ff" fill-opacity="1"><g transform="translate(237.719284, 203.711413)"><g><path d="M 4.3125 -11.15625 L 4.484375 -11.15625 C 4.722656 -11.15625 4.84375 -11.039062 4.84375 -10.8125 L 4.84375 -0.359375 C 4.84375 -0.265625 4.804688 -0.179688 4.734375 -0.109375 C 4.671875 -0.0351562 4.585938 0 4.484375 0 L 4.3125 0 C 4.195312 0 4.109375 -0.0351562 4.046875 -0.109375 C 3.984375 -0.179688 3.953125 -0.265625 3.953125 -0.359375 L 3.953125 -10.8125 C 3.953125 -11.039062 4.070312 -11.15625 4.3125 -11.15625 Z M 0.453125 -12.515625 L 8.390625 -12.515625 C 8.492188 -12.515625 8.578125 -12.476562 8.640625 -12.40625 C 8.703125 -12.332031 8.734375 -12.25 8.734375 -12.15625 L 8.734375 -11.953125 C 8.734375 -11.742188 8.617188 -11.640625 8.390625 -11.640625 L 0.453125 -11.640625 C 0.210938 -11.640625 0.09375 -11.742188 0.09375 -11.953125 L 0.09375 -12.15625 C 0.09375 -12.25 0.125 -12.332031 0.1875 -12.40625 C 0.257812 -12.476562 0.347656 -12.515625 0.453125 -12.515625 Z M 0.453125 -12.515625 "/></g></g></g><g fill="#00b4ff" fill-opacity="1"><g transform="translate(249.087226, 203.711413)"><g><path d="M 1.6875 -12.515625 L 1.84375 -12.515625 C 1.9375 -12.515625 2.019531 -12.476562 2.09375 -12.40625 C 2.164062 -12.332031 2.203125 -12.25 2.203125 -12.15625 L 2.203125 -0.359375 C 2.203125 -0.265625 2.164062 -0.179688 2.09375 -0.109375 C 2.019531 -0.0351562 1.9375 0 1.84375 0 L 1.6875 0 C 1.570312 0 1.484375 -0.0351562 1.421875 -0.109375 C 1.359375 -0.179688 1.328125 -0.265625 1.328125 -0.359375 L 1.328125 -12.15625 C 1.328125 -12.25 1.359375 -12.332031 1.421875 -12.40625 C 1.484375 -12.476562 1.570312 -12.515625 1.6875 -12.515625 Z M 1.6875 -12.515625 "/></g></g></g><g fill="#00b4ff" fill-opacity="1"><g transform="translate(255.093863, 203.711413)"><g><path d="M 3.125 -12.09375 C 3.550781 -12.28125 3.925781 -12.394531 4.25 -12.4375 C 4.570312 -12.488281 4.898438 -12.515625 5.234375 -12.515625 C 5.578125 -12.515625 5.914062 -12.488281 6.25 -12.4375 C 6.582031 -12.382812 6.960938 -12.257812 7.390625 -12.0625 C 7.816406 -11.875 8.179688 -11.628906 8.484375 -11.328125 C 8.796875 -11.023438 9.054688 -10.59375 9.265625 -10.03125 C 9.484375 -9.476562 9.59375 -8.835938 9.59375 -8.109375 L 9.59375 -4.484375 C 9.59375 -3.734375 9.484375 -3.070312 9.265625 -2.5 C 9.046875 -1.925781 8.773438 -1.484375 8.453125 -1.171875 C 8.140625 -0.867188 7.773438 -0.617188 7.359375 -0.421875 C 6.691406 -0.128906 5.988281 0.015625 5.25 0.015625 C 4.476562 0.015625 3.820312 -0.113281 3.28125 -0.375 C 2.738281 -0.632812 2.3125 -0.921875 2 -1.234375 C 1.6875 -1.546875 1.421875 -1.984375 1.203125 -2.546875 C 0.992188 -3.109375 0.890625 -3.753906 0.890625 -4.484375 L 0.890625 -8.109375 C 0.890625 -8.859375 1 -9.515625 1.21875 -10.078125 C 1.445312 -10.640625 1.710938 -11.066406 2.015625 -11.359375 C 2.328125 -11.660156 2.695312 -11.90625 3.125 -12.09375 Z M 6.921875 -11.28125 C 6.585938 -11.4375 6.289062 -11.535156 6.03125 -11.578125 C 5.78125 -11.617188 5.519531 -11.640625 5.25 -11.640625 C 4.976562 -11.640625 4.710938 -11.617188 4.453125 -11.578125 C 4.191406 -11.535156 3.890625 -11.4375 3.546875 -11.28125 C 3.203125 -11.132812 2.90625 -10.9375 2.65625 -10.6875 C 2.40625 -10.445312 2.191406 -10.097656 2.015625 -9.640625 C 1.847656 -9.179688 1.765625 -8.648438 1.765625 -8.046875 L 1.765625 -4.546875 C 1.765625 -3.929688 1.847656 -3.390625 2.015625 -2.921875 C 2.191406 -2.460938 2.410156 -2.101562 2.671875 -1.84375 C 2.929688 -1.59375 3.226562 -1.390625 3.5625 -1.234375 C 3.894531 -1.078125 4.191406 -0.972656 4.453125 -0.921875 C 4.722656 -0.878906 4.988281 -0.859375 5.25 -0.859375 C 5.519531 -0.859375 5.785156 -0.878906 6.046875 -0.921875 C 6.316406 -0.972656 6.617188 -1.078125 6.953125 -1.234375 C 7.285156 -1.390625 7.578125 -1.59375 7.828125 -1.84375 C 8.078125 -2.101562 8.285156 -2.460938 8.453125 -2.921875 C 8.628906 -3.390625 8.71875 -3.929688 8.71875 -4.546875 L 8.71875 -8.046875 C 8.71875 -8.648438 8.628906 -9.179688 8.453125 -9.640625 C 8.273438 -10.097656 8.0625 -10.445312 7.8125 -10.6875 C 7.5625 -10.9375 7.265625 -11.132812 6.921875 -11.28125 Z M 6.921875 -11.28125 "/></g></g></g><g fill="#00b4ff" fill-opacity="1"><g transform="translate(268.356134, 203.711413)"><g><path d="M 1.59375 -12.546875 C 1.914062 -12.546875 2.164062 -12.40625 2.34375 -12.125 C 4.644531 -8.3125 6.757812 -4.679688 8.6875 -1.234375 L 8.6875 -12.15625 C 8.6875 -12.25 8.71875 -12.332031 8.78125 -12.40625 C 8.851562 -12.476562 8.941406 -12.515625 9.046875 -12.515625 L 9.21875 -12.515625 C 9.332031 -12.515625 9.421875 -12.476562 9.484375 -12.40625 C 9.546875 -12.332031 9.578125 -12.25 9.578125 -12.15625 L 9.578125 -0.65625 C 9.578125 -0.414062 9.507812 -0.238281 9.375 -0.125 C 9.238281 -0.0195312 9.046875 0.03125 8.796875 0.03125 C 8.546875 0.03125 8.335938 -0.0976562 8.171875 -0.359375 L 1.828125 -11.25 L 1.828125 -0.359375 C 1.828125 -0.265625 1.789062 -0.179688 1.71875 -0.109375 C 1.644531 -0.0351562 1.5625 0 1.46875 0 L 1.265625 0 C 1.171875 0 1.085938 -0.0351562 1.015625 -0.109375 C 0.953125 -0.179688 0.921875 -0.265625 0.921875 -0.359375 L 0.921875 -11.8125 C 0.921875 -12.300781 1.144531 -12.546875 1.59375 -12.546875 Z M 1.59375 -12.546875 "/></g></g></g></svg>