<svg xmlns="http://www.w3.org/2000/svg" xmlns:xlink="http://www.w3.org/1999/xlink" zoomAndPan="magnify" preserveAspectRatio="xMidYMid meet" version="1.0" viewBox="59.67 159.24 256.32 39.97"><defs><g/></defs><g fill="#e71f69" fill-opacity="1"><g transform="translate(58.372801, 179.007732)"><g><path d="M 18.375 -19.5 L 22.296875 -19.5 L 22.296875 0 L 18.15625 0 L 18.15625 -12.875 L 13.5 -6.359375 L 10.171875 -6.359375 L 5.46875 -12.671875 L 5.46875 0 L 1.296875 0 L 1.296875 -19.5 L 5.25 -19.5 L 11.859375 -10.5 Z M 18.375 -19.5 "/></g></g></g><g fill="#e71f69" fill-opacity="1"><g transform="translate(83.253502, 179.007732)"><g><path d="M 1.3125 -19.5 L 13.5 -19.5 L 13.5 -15.703125 L 5.5 -15.703125 L 5.5 -12.1875 L 12.546875 -12.1875 L 12.546875 -8.390625 L 5.5 -8.390625 L 5.5 -3.765625 L 13.5 -3.765625 L 13.5 0 L 1.3125 0 Z M 1.3125 -19.5 "/></g></g></g><g fill="#e71f69" fill-opacity="1"><g transform="translate(99.364219, 179.007732)"><g><path d="M 9.1875 -19.5 C 10.59375 -19.5 11.835938 -19.238281 12.921875 -18.71875 C 14.003906 -18.207031 14.90625 -17.507812 15.625 -16.625 C 16.351562 -15.75 16.90625 -14.71875 17.28125 -13.53125 C 17.65625 -12.34375 17.84375 -11.078125 17.84375 -9.734375 C 17.84375 -8.378906 17.644531 -7.109375 17.25 -5.921875 C 16.863281 -4.742188 16.320312 -3.710938 15.625 -2.828125 C 14.925781 -1.953125 14.097656 -1.257812 13.140625 -0.75 C 12.191406 -0.25 11.15625 0 10.03125 0 L 1.3125 0 L 1.3125 -19.5 Z M 9.21875 -3.765625 C 10 -3.765625 10.671875 -3.925781 11.234375 -4.25 C 11.796875 -4.570312 12.257812 -5.003906 12.625 -5.546875 C 12.988281 -6.097656 13.253906 -6.734375 13.421875 -7.453125 C 13.597656 -8.171875 13.6875 -8.921875 13.6875 -9.703125 C 13.6875 -10.492188 13.601562 -11.25 13.4375 -11.96875 C 13.28125 -12.695312 13.015625 -13.335938 12.640625 -13.890625 C 12.273438 -14.441406 11.804688 -14.878906 11.234375 -15.203125 C 10.671875 -15.535156 10 -15.703125 9.21875 -15.703125 L 5.5 -15.703125 L 5.5 -3.765625 Z M 9.21875 -3.765625 "/></g></g></g><g fill="#e71f69" fill-opacity="1"><g transform="translate(119.433802, 179.007732)"><g><path d="M 8.390625 -19.5 L 8.390625 -15.984375 L 6.9375 -15.984375 L 6.9375 -3.5 L 8.390625 -3.5 L 8.390625 0 L 1.296875 0 L 1.296875 -3.5 L 2.75 -3.5 L 2.75 -15.984375 L 1.296875 -15.984375 L 1.296875 -19.5 Z M 8.390625 -19.5 "/></g></g></g><g fill="#e71f69" fill-opacity="1"><g transform="translate(130.376001, 179.007732)"><g><path d="M 10.484375 -3.796875 C 11.359375 -3.796875 12.21875 -3.992188 13.0625 -4.390625 C 13.90625 -4.796875 14.757812 -5.476562 15.625 -6.4375 L 18.3125 -3.875 C 17.226562 -2.476562 15.992188 -1.421875 14.609375 -0.703125 C 13.234375 0.00390625 11.8125 0.359375 10.34375 0.359375 C 9.019531 0.359375 7.78125 0.0859375 6.625 -0.453125 C 5.46875 -0.992188 4.460938 -1.722656 3.609375 -2.640625 C 2.765625 -3.554688 2.097656 -4.625 1.609375 -5.84375 C 1.117188 -7.0625 0.875 -8.359375 0.875 -9.734375 C 0.875 -11.109375 1.125 -12.398438 1.625 -13.609375 C 2.132812 -14.816406 2.820312 -15.878906 3.6875 -16.796875 C 4.550781 -17.710938 5.566406 -18.4375 6.734375 -18.96875 C 7.910156 -19.5 9.160156 -19.765625 10.484375 -19.765625 C 11.703125 -19.765625 12.863281 -19.535156 13.96875 -19.078125 C 15.082031 -18.617188 16.175781 -17.859375 17.25 -16.796875 L 14.828125 -13.859375 C 14.054688 -14.578125 13.328125 -15.054688 12.640625 -15.296875 C 11.953125 -15.546875 11.234375 -15.671875 10.484375 -15.671875 C 9.722656 -15.671875 9.007812 -15.515625 8.34375 -15.203125 C 7.675781 -14.890625 7.09375 -14.46875 6.59375 -13.9375 C 6.101562 -13.40625 5.710938 -12.773438 5.421875 -12.046875 C 5.140625 -11.328125 5 -10.554688 5 -9.734375 C 5 -8.910156 5.140625 -8.140625 5.421875 -7.421875 C 5.710938 -6.710938 6.101562 -6.085938 6.59375 -5.546875 C 7.09375 -5.003906 7.675781 -4.578125 8.34375 -4.265625 C 9.007812 -3.953125 9.722656 -3.796875 10.484375 -3.796875 Z M 10.484375 -3.796875 "/></g></g></g><g fill="#e71f69" fill-opacity="1"><g transform="translate(150.775482, 179.007732)"><g><path d="M 13.28125 -19.5 L 21.421875 0 L 16.90625 0 L 15.15625 -4.1875 L 6.875 -4.1875 L 5.140625 0 L 0.609375 0 L 8.75 -19.5 Z M 13.578125 -7.96875 L 11.03125 -14.109375 L 8.46875 -7.96875 Z M 13.578125 -7.96875 "/></g></g></g><g fill="#e71f69" fill-opacity="1"><g transform="translate(174.089132, 179.007732)"><g><path d="M 5.46875 -3.765625 L 13.46875 -3.765625 L 13.46875 0 L 1.296875 0 L 1.296875 -19.5 L 5.46875 -19.5 Z M 5.46875 -3.765625 "/></g></g></g><g fill="#e71f69" fill-opacity="1"><g transform="translate(189.127652, 179.007732)"><g/></g></g><g fill="#e71f69" fill-opacity="1"><g transform="translate(197.980457, 179.007732)"><g><path d="M 9.1875 -19.5 C 10.59375 -19.5 11.835938 -19.238281 12.921875 -18.71875 C 14.003906 -18.207031 14.90625 -17.507812 15.625 -16.625 C 16.351562 -15.75 16.90625 -14.71875 17.28125 -13.53125 C 17.65625 -12.34375 17.84375 -11.078125 17.84375 -9.734375 C 17.84375 -8.378906 17.644531 -7.109375 17.25 -5.921875 C 16.863281 -4.742188 16.320312 -3.710938 15.625 -2.828125 C 14.925781 -1.953125 14.097656 -1.257812 13.140625 -0.75 C 12.191406 -0.25 11.15625 0 10.03125 0 L 1.3125 0 L 1.3125 -19.5 Z M 9.21875 -3.765625 C 10 -3.765625 10.671875 -3.925781 11.234375 -4.25 C 11.796875 -4.570312 12.257812 -5.003906 12.625 -5.546875 C 12.988281 -6.097656 13.253906 -6.734375 13.421875 -7.453125 C 13.597656 -8.171875 13.6875 -8.921875 13.6875 -9.703125 C 13.6875 -10.492188 13.601562 -11.25 13.4375 -11.96875 C 13.28125 -12.695312 13.015625 -13.335938 12.640625 -13.890625 C 12.273438 -14.441406 11.804688 -14.878906 11.234375 -15.203125 C 10.671875 -15.535156 10 -15.703125 9.21875 -15.703125 L 5.5 -15.703125 L 5.5 -3.765625 Z M 9.21875 -3.765625 "/></g></g></g><g fill="#e71f69" fill-opacity="1"><g transform="translate(218.05004, 179.007732)"><g><path d="M 10.5 -19.765625 C 11.820312 -19.765625 13.066406 -19.5 14.234375 -18.96875 C 15.410156 -18.4375 16.4375 -17.710938 17.3125 -16.796875 C 18.1875 -15.878906 18.875 -14.816406 19.375 -13.609375 C 19.875 -12.398438 20.125 -11.109375 20.125 -9.734375 C 20.125 -8.378906 19.875 -7.085938 19.375 -5.859375 C 18.875 -4.628906 18.1875 -3.554688 17.3125 -2.640625 C 16.4375 -1.722656 15.410156 -0.992188 14.234375 -0.453125 C 13.066406 0.0859375 11.820312 0.359375 10.5 0.359375 C 9.1875 0.359375 7.941406 0.0859375 6.765625 -0.453125 C 5.585938 -0.992188 4.566406 -1.722656 3.703125 -2.640625 C 2.847656 -3.554688 2.164062 -4.628906 1.65625 -5.859375 C 1.15625 -7.085938 0.90625 -8.378906 0.90625 -9.734375 C 0.90625 -11.109375 1.15625 -12.398438 1.65625 -13.609375 C 2.164062 -14.816406 2.847656 -15.878906 3.703125 -16.796875 C 4.566406 -17.710938 5.585938 -18.4375 6.765625 -18.96875 C 7.941406 -19.5 9.1875 -19.765625 10.5 -19.765625 Z M 10.5 -3.796875 C 11.25 -3.796875 11.953125 -3.953125 12.609375 -4.265625 C 13.273438 -4.578125 13.851562 -5.003906 14.34375 -5.546875 C 14.84375 -6.085938 15.234375 -6.710938 15.515625 -7.421875 C 15.804688 -8.140625 15.953125 -8.910156 15.953125 -9.734375 C 15.953125 -10.554688 15.804688 -11.328125 15.515625 -12.046875 C 15.234375 -12.773438 14.84375 -13.410156 14.34375 -13.953125 C 13.851562 -14.492188 13.273438 -14.921875 12.609375 -15.234375 C 11.953125 -15.546875 11.25 -15.703125 10.5 -15.703125 C 9.75 -15.703125 9.039062 -15.546875 8.375 -15.234375 C 7.71875 -14.921875 7.140625 -14.492188 6.640625 -13.953125 C 6.148438 -13.410156 5.765625 -12.773438 5.484375 -12.046875 C 5.203125 -11.328125 5.0625 -10.554688 5.0625 -9.734375 C 5.0625 -8.910156 5.203125 -8.140625 5.484375 -7.421875 C 5.765625 -6.710938 6.148438 -6.085938 6.640625 -5.546875 C 7.140625 -5.003906 7.71875 -4.578125 8.375 -4.265625 C 9.039062 -3.953125 9.75 -3.796875 10.5 -3.796875 Z M 10.5 -3.796875 "/></g></g></g><g fill="#e71f69" fill-opacity="1"><g transform="translate(240.373971, 179.007732)"><g><path d="M 10.484375 -3.796875 C 11.359375 -3.796875 12.21875 -3.992188 13.0625 -4.390625 C 13.90625 -4.796875 14.757812 -5.476562 15.625 -6.4375 L 18.3125 -3.875 C 17.226562 -2.476562 15.992188 -1.421875 14.609375 -0.703125 C 13.234375 0.00390625 11.8125 0.359375 10.34375 0.359375 C 9.019531 0.359375 7.78125 0.0859375 6.625 -0.453125 C 5.46875 -0.992188 4.460938 -1.722656 3.609375 -2.640625 C 2.765625 -3.554688 2.097656 -4.625 1.609375 -5.84375 C 1.117188 -7.0625 0.875 -8.359375 0.875 -9.734375 C 0.875 -11.109375 1.125 -12.398438 1.625 -13.609375 C 2.132812 -14.816406 2.820312 -15.878906 3.6875 -16.796875 C 4.550781 -17.710938 5.566406 -18.4375 6.734375 -18.96875 C 7.910156 -19.5 9.160156 -19.765625 10.484375 -19.765625 C 11.703125 -19.765625 12.863281 -19.535156 13.96875 -19.078125 C 15.082031 -18.617188 16.175781 -17.859375 17.25 -16.796875 L 14.828125 -13.859375 C 14.054688 -14.578125 13.328125 -15.054688 12.640625 -15.296875 C 11.953125 -15.546875 11.234375 -15.671875 10.484375 -15.671875 C 9.722656 -15.671875 9.007812 -15.515625 8.34375 -15.203125 C 7.675781 -14.890625 7.09375 -14.46875 6.59375 -13.9375 C 6.101562 -13.40625 5.710938 -12.773438 5.421875 -12.046875 C 5.140625 -11.328125 5 -10.554688 5 -9.734375 C 5 -8.910156 5.140625 -8.140625 5.421875 -7.421875 C 5.710938 -6.710938 6.101562 -6.085938 6.59375 -5.546875 C 7.09375 -5.003906 7.675781 -4.578125 8.34375 -4.265625 C 9.007812 -3.953125 9.722656 -3.796875 10.484375 -3.796875 Z M 10.484375 -3.796875 "/></g></g></g><g fill="#e71f69" fill-opacity="1"><g transform="translate(260.773452, 179.007732)"><g><path d="M 9.796875 -10.59375 L 19.1875 0 L 14.046875 0 L 7.15625 -7.953125 L 5.46875 -6.25 L 5.46875 0 L 1.296875 0 L 1.296875 -19.5 L 5.46875 -19.5 L 5.46875 -11.609375 L 13.3125 -19.5 L 18.640625 -19.5 Z M 9.796875 -10.59375 "/></g></g></g><g fill="#e71f69" fill-opacity="1"><g transform="translate(281.640288, 179.007732)"><g><path d="M 1.3125 -19.5 L 13.5 -19.5 L 13.5 -15.703125 L 5.5 -15.703125 L 5.5 -12.1875 L 12.546875 -12.1875 L 12.546875 -8.390625 L 5.5 -8.390625 L 5.5 -3.765625 L 13.5 -3.765625 L 13.5 0 L 1.3125 0 Z M 1.3125 -19.5 "/></g></g></g><g fill="#e71f69" fill-opacity="1"><g transform="translate(297.751004, 179.007732)"><g><path d="M 15.3125 -13.6875 C 15.3125 -13.070312 15.222656 -12.484375 15.046875 -11.921875 C 14.878906 -11.359375 14.640625 -10.84375 14.328125 -10.375 C 14.015625 -9.914062 13.640625 -9.503906 13.203125 -9.140625 C 12.765625 -8.785156 12.285156 -8.5 11.765625 -8.28125 L 18.234375 0 L 13.359375 0 L 7.34375 -7.859375 L 5.46875 -7.859375 L 5.46875 0 L 1.296875 0 L 1.296875 -19.5 L 9.703125 -19.5 C 10.472656 -19.5 11.203125 -19.347656 11.890625 -19.046875 C 12.578125 -18.742188 13.171875 -18.328125 13.671875 -17.796875 C 14.179688 -17.273438 14.582031 -16.660156 14.875 -15.953125 C 15.164062 -15.253906 15.3125 -14.5 15.3125 -13.6875 Z M 9.1875 -11.65625 C 9.71875 -11.65625 10.175781 -11.851562 10.5625 -12.25 C 10.945312 -12.644531 11.140625 -13.125 11.140625 -13.6875 C 11.140625 -14.238281 10.945312 -14.710938 10.5625 -15.109375 C 10.175781 -15.503906 9.71875 -15.703125 9.1875 -15.703125 L 5.46875 -15.703125 L 5.46875 -11.65625 Z M 9.1875 -11.65625 "/></g></g></g><g fill="#e71f69" fill-opacity="1"><g transform="translate(116.011506, 199.044611)"><g><path d="M 2.554688 0 L 2.554688 -3.832031 L 6.496094 -3.832031 L 6.496094 0 L 8.230469 0 L 8.230469 -9.195312 L 6.496094 -9.195312 L 6.496094 -5.386719 L 2.554688 -5.386719 L 2.554688 -9.195312 L 0.820312 -9.195312 L 0.820312 0 Z M 2.554688 0 "/></g></g></g><g fill="#e71f69" fill-opacity="1"><g transform="translate(130.856527, 199.044611)"><g><path d="M 6.953125 0 L 6.953125 -1.554688 L 2.554688 -1.554688 L 2.554688 -3.832031 L 6.496094 -3.832031 L 6.496094 -5.375 L 2.554688 -5.375 L 2.554688 -7.640625 L 6.953125 -7.640625 L 6.953125 -9.195312 L 0.820312 -9.195312 L 0.820312 0 Z M 6.953125 0 "/></g></g></g><g fill="#e71f69" fill-opacity="1"><g transform="translate(144.123407, 199.044611)"><g><path d="M 1.902344 0 L 2.519531 -1.890625 L 6.027344 -1.890625 L 6.652344 0 L 8.472656 0 L 5.230469 -9.195312 L 3.328125 -9.195312 L 0.0859375 0 Z M 4.277344 -7.304688 L 5.542969 -3.410156 L 3.011719 -3.410156 Z M 4.277344 -7.304688 "/></g></g></g><g fill="#e71f69" fill-opacity="1"><g transform="translate(158.462461, 199.044611)"><g><path d="M 6.449219 0 L 6.449219 -1.554688 L 2.554688 -1.554688 L 2.554688 -9.195312 L 0.820312 -9.195312 L 0.820312 0 Z M 6.449219 0 "/></g></g></g><g fill="#e71f69" fill-opacity="1"><g transform="translate(170.82583, 199.044611)"><g><path d="M 4.664062 0 L 4.664062 -7.640625 L 7.460938 -7.640625 L 7.460938 -9.195312 L 0.121094 -9.195312 L 0.121094 -7.640625 L 2.929688 -7.640625 L 2.929688 0 Z M 4.664062 0 "/></g></g></g><g fill="#e71f69" fill-opacity="1"><g transform="translate(184.201134, 199.044611)"><g><path d="M 2.554688 0 L 2.554688 -3.832031 L 6.496094 -3.832031 L 6.496094 0 L 8.230469 0 L 8.230469 -9.195312 L 6.496094 -9.195312 L 6.496094 -5.386719 L 2.554688 -5.386719 L 2.554688 -9.195312 L 0.820312 -9.195312 L 0.820312 0 Z M 2.554688 0 "/></g></g></g><g fill="#e71f69" fill-opacity="1"><g transform="translate(199.046157, 199.044611)"><g/></g></g><g fill="#e71f69" fill-opacity="1"><g transform="translate(208.060496, 199.044611)"><g><path d="M 4.929688 0.167969 C 7.195312 0.167969 8.582031 -1.085938 8.835938 -2.988281 L 6.941406 -2.988281 C 6.761719 -1.902344 5.964844 -1.386719 4.882812 -1.386719 C 3.195312 -1.386719 2.277344 -2.6875 2.277344 -4.605469 C 2.277344 -6.507812 3.195312 -7.808594 4.882812 -7.808594 C 5.964844 -7.808594 6.773438 -7.292969 6.941406 -6.316406 L 8.835938 -6.316406 C 8.582031 -8.125 7.195312 -9.363281 4.929688 -9.363281 C 1.878906 -9.363281 0.46875 -7.148438 0.46875 -4.605469 C 0.46875 -2.0625 1.878906 0.167969 4.929688 0.167969 Z M 4.929688 0.167969 "/></g></g></g><g fill="#e71f69" fill-opacity="1"><g transform="translate(223.086221, 199.044611)"><g><path d="M 1.902344 0 L 2.519531 -1.890625 L 6.027344 -1.890625 L 6.652344 0 L 8.472656 0 L 5.230469 -9.195312 L 3.328125 -9.195312 L 0.0859375 0 Z M 4.277344 -7.304688 L 5.542969 -3.410156 L 3.011719 -3.410156 Z M 4.277344 -7.304688 "/></g></g></g><g fill="#e71f69" fill-opacity="1"><g transform="translate(237.425279, 199.044611)"><g><path d="M 6.253906 -3.988281 C 7.148438 -4.410156 7.703125 -5.277344 7.703125 -6.484375 C 7.703125 -8.386719 6.507812 -9.195312 4.785156 -9.195312 L 0.820312 -9.195312 L 0.820312 0 L 2.554688 0 L 2.554688 -3.675781 L 4.605469 -3.675781 L 6.0625 0 L 7.90625 0 Z M 4.542969 -7.640625 C 5.460938 -7.640625 5.976562 -7.207031 5.976562 -6.425781 C 5.976562 -5.617188 5.472656 -5.195312 4.542969 -5.195312 L 2.554688 -5.195312 L 2.554688 -7.640625 Z M 4.542969 -7.640625 "/></g></g></g><g fill="#e71f69" fill-opacity="1"><g transform="translate(251.511352, 199.044611)"><g><path d="M 6.953125 0 L 6.953125 -1.554688 L 2.554688 -1.554688 L 2.554688 -3.832031 L 6.496094 -3.832031 L 6.496094 -5.375 L 2.554688 -5.375 L 2.554688 -7.640625 L 6.953125 -7.640625 L 6.953125 -9.195312 L 0.820312 -9.195312 L 0.820312 0 Z M 6.953125 0 "/></g></g></g></svg>